<svg xmlns="http://www.w3.org/2000/svg" width="13" height="13" viewBox="0 0 13 13">
    <path fill="#2AD396" fill-rule="evenodd" d="M6.437 1.463A3.426 3.426 0 0 1 8.006.557a3.463 3.463 0 0 1 3.369.918 3.463 3.463 0 0 1 .917 3.369 3.426 3.426 0 0 1-.906 1.569L9.387 8.412l-.947-.948 1.999-1.999c.27-.27.454-.592.554-.968.1-.376.1-.752.003-1.128a2.085 2.085 0 0 0-.55-.966 2.085 2.085 0 0 0-.966-.55 2.18 2.18 0 0 0-1.127.003 2.11 2.11 0 0 0-.97.554l-1.998 2-.947-.948 1.999-1.999zM4.935 8.885l-.971-.97 3.95-3.951.971.971-3.95 3.95zm-2.532 1.561c.268.269.59.452.966.55a2.18 2.18 0 0 0 1.128-.003c.376-.1.699-.284.968-.554l2-1.999.947.947-2 2a3.426 3.426 0 0 1-1.568.905 3.463 3.463 0 0 1-3.369-.918 3.463 3.463 0 0 1-.918-3.368c.16-.602.462-1.125.906-1.57l1.999-1.998.947.947L2.41 7.384a2.11 2.11 0 0 0-.554.969c-.1.376-.1.752-.003 1.127.098.376.282.698.55.966z"/>
</svg>
