<svg xmlns="http://www.w3.org/2000/svg" width="13" height="14" viewBox="0 0 13 14">
    <path fill="#484B4C" fill-rule="evenodd" d="M4.955 12.438c.453.19.87.285 1.25.285.78 0 1.423-.122 1.929-.366s.869-.58 1.09-1.009c.225-.416.338-.955.338-1.616 0-.678-.122-1.214-.366-1.607-.345-.56-.764-.935-1.258-1.125-.477-.19-1.212-.286-2.206-.286-.44 0-.74.03-.902.09v1.285l-.009 1.545.027 2.41c0 .09.036.22.107.393zM4.83 5.777c.256.041.58.062.974.062 1.041 0 1.827-.193 2.357-.58.53-.387.794-1.054.794-2 0-.667-.253-1.223-.759-1.67-.5-.446-1.258-.67-2.276-.67-.31 0-.697.04-1.161.117 0 .262.006.49.018.687.041.726.06 1.557.053 2.491l-.009.875c0 .256.003.485.01.688zM0 13.714l.018-.839c.268-.054.47-.09.607-.107.458-.072.824-.164 1.098-.277.101-.16.164-.312.188-.455.053-.393.08-.97.08-1.732l-.018-4.438a509.36 509.36 0 0 0-.08-3.607c-.006-.518-.039-.842-.098-.973-.006-.024-.042-.06-.107-.107-.108-.072-.313-.116-.617-.134C.893 1.033.554.994.054.929L.018.187 2.339.135 5.732.018l.402-.01c.03 0 .071 0 .125-.004a2.405 2.405 0 0 1 .317 0c.122.003.242.005.362.005h.66c.524 0 1.092.08 1.706.241.256.077.541.193.857.348.339.173.643.399.91.679.262.28.456.59.58.928.126.34.188.703.188 1.09 0 .416-.095.797-.285 1.143-.19.345-.474.657-.849.937-.154.119-.6.348-1.339.688 1.054.244 1.848.678 2.384 1.303.548.631.821 1.333.821 2.107 0 .453-.086.932-.258 1.438a2.97 2.97 0 0 1-.634 1.044c-.393.429-.81.75-1.25.965-.435.214-1.04.392-1.813.535-.488.09-1.077.122-1.768.099l-1.759-.036c-.5-.012-1.387.02-2.66.098-.197.018-1.006.05-2.429.098z"/>
</svg>
