<svg xmlns="http://www.w3.org/2000/svg" width="30" height="30" viewBox="0 0 30 30">
    <g fill="none" fill-rule="evenodd">
        <rect width="29" height="29" x=".5" y=".5" stroke="#E8E8E8" rx="4"/>
        <g fill="#B9B9B9">
            <path d="M12.352 10.536h.674v-.023h-.674zM15.046 10.536h.675v-.023h-.675zM18.412 10.536l-.672 10.78h-.674l.671-10.78H15.72v10.78h-.674v-10.78h-2.02l.671 10.78h-.674l-.671-10.78H9.654l1.349 12.128h8.757l1.349-12.128zM17.74 10.536h.675v-.023h-.675zM21.8 9.191c0-.674-.336-.674-.336-.674h-4.398s0-.675-.675-.675h-2.019c-.675 0-.675.675-.675.675H9.34S9 8.517 9 9.19c0 .67.339.67.339.67h12.125s.335 0 .335-.67"/>
        </g>
    </g>
</svg>
