<svg xmlns="http://www.w3.org/2000/svg" width="21" height="24" viewBox="0 0 21 24">
    <g fill="none" fill-rule="evenodd">
        <path fill="#FFF" d="M5.727 10.863c0 1.568.69 3.01 1.896 3.957a4.143 4.143 0 0 1 1.595 3.278l2.6-.536a4.21 4.21 0 0 1 1.582-2.758c1.39-1.107 2.07-2.85 1.823-4.674-.455-2.554-2.456-4.142-4.723-4.228-2.627 0-4.773 2.226-4.773 4.961"/>
        <path fill="#896CA8" d="M16.692 5.325l1.075-1.108a.64.64 0 0 0 0-.886.595.595 0 0 0-.86 0l-1.074 1.108a.64.64 0 0 0 0 .886.595.595 0 0 0 .86 0M16.692 16.315a.595.595 0 0 0-.86 0 .64.64 0 0 0 0 .885l1.076 1.108a.595.595 0 0 0 .86 0 .64.64 0 0 0 0-.885l-1.076-1.108zM4.309 5.325a.595.595 0 0 0 .859 0 .64.64 0 0 0 0-.886L4.093 3.331a.595.595 0 0 0-.86 0 .637.637 0 0 0 0 .886L4.31 5.325zM13.235 14.454c-.888.694-1.455 1.669-1.597 2.73l-2.626.53A4.07 4.07 0 0 0 7.4 14.47a4.906 4.906 0 0 1-1.914-3.915c0-2.706 2.16-4.91 4.82-4.91 2.29.09 4.307 1.662 4.77 4.185.253 1.805-.436 3.532-1.841 4.624m3.12-4.808c-.368-3.166-3.132-5.318-6.045-5.318-3.369 0-6.11 2.792-6.11 6.227 0 1.965.884 3.774 2.427 4.963.7.542 1.099 1.338 1.099 2.196v.904c-.023.375.375.745.789.644l3.882-.905a.66.66 0 0 0 .501-.643c0-.854.413-1.661 1.126-2.219 1.776-1.384 2.645-3.568 2.331-5.849M8.834 22.01l4.01-.96c.36-.082.585-.459.502-.836a.667.667 0 0 0-.798-.525l-4.01.96c-.36.083-.586.46-.503.836.068.364.463.629.799.525M12.55 21.669l-3.985.957c-.358.082-.582.458-.5.833.099.408.472.602.794.524l3.986-.957c.357-.082.581-.458.499-.833-.083-.375-.436-.615-.794-.524M10.5 3.148c.315 0 .573-.31.573-.7V.7c0-.385-.254-.699-.573-.699-.315 0-.573.31-.573.699v1.745c0 .39.258.704.573.704M20.3 10.277h-1.667c-.368 0-.668.332-.668.748 0 .415.296.747.668.747h1.666c.367 0 .668-.332.668-.747.003-.412-.3-.748-.668-.748M2.375 10.23H.68c-.374 0-.679.261-.679.59 0 .328.301.59.68.59h1.695c.374 0 .68-.262.68-.59 0-.325-.306-.59-.68-.59M4.308 16.315l-1.075 1.108a.64.64 0 0 0 0 .885.595.595 0 0 0 .86 0L5.166 17.2a.64.64 0 0 0 0-.885.595.595 0 0 0-.86 0"/>
        <path fill="#6EE4FF" d="M10.416 6.857c-2.048 0-3.716 1.69-3.716 3.764a3.74 3.74 0 0 0 1.475 3 5.662 5.662 0 0 1 2.007 2.904l.5-.119a5.774 5.774 0 0 1 1.982-2.8c1.088-.841 1.62-2.168 1.423-3.552-.327-1.83-1.75-3.14-3.671-3.197z"/>
    </g>
</svg>
