<svg xmlns="http://www.w3.org/2000/svg" width="13" height="13" viewBox="0 0 13 13">
    <path fill="#896CA8" fill-rule="nonzero" d="M12.432.093c-.586-.334-1.24.31-1.624.691-.88.906-1.625 1.955-2.46 2.909-.925 1.049-1.782 2.097-2.73 3.123-.541.572-1.128 1.192-1.489 1.907-.812-.835-1.511-1.74-2.414-2.48C1.061 5.72-.022 5.338 0 6.601c.045 1.645 1.422 3.41 2.437 4.53.429.476.993.977 1.647 1 .79.048 1.602-.953 2.076-1.501.835-.954 1.512-2.027 2.279-3.004.992-1.287 2.008-2.55 2.978-3.862.61-.81 2.527-2.813 1.015-3.671zM.993 6.506c-.023 0-.045 0-.09.023a1.06 1.06 0 0 1-.248-.095c.067-.048.18-.024.338.072z"/>
</svg>
