<svg xmlns="http://www.w3.org/2000/svg" width="18" height="17" viewBox="0 0 18 17">
    <path fill="#ffffff" fill-rule="nonzero" d="M12.05 13.5l-2.775 2.775a.68.68 0 0 1-.525.225.68.68 0 0 1-.525-.225L5.45 13.5H3c-1.65 0-3-1.215-3-2.7V2.7C0 1.215 1.35 0 3 0h12c1.65 0 3 1.215 3 2.7v8.1c0 1.485-1.35 2.7-3 2.7h-2.95zm.139-1.35H15c.825 0 1.5-.607 1.5-1.35V2.7c0-.743-.675-1.35-1.5-1.35H3c-.825 0-1.5.607-1.5 1.35v8.1c0 .742.675 1.35 1.5 1.35h2.311a.718.718 0 0 1 .907.023c.28.064.471.251.52.515L8.75 14.7l2.475-2.475a.722.722 0 0 1 .964-.075z"/>
</svg>
