<svg xmlns="http://www.w3.org/2000/svg" width="23" height="22" viewBox="0 0 23 22">
    <g fill="none" fill-rule="evenodd">
        <path fill="#69CE81" fill-rule="nonzero" d="M20.7 0H2.3C1.053 0 0 1.053 0 2.3v12.65c0 1.247 1.053 2.3 2.3 2.3h5.58l3.335 3.706a.382.382 0 0 0 .57 0l3.336-3.706H20.7c1.247 0 2.3-1.053 2.3-2.3V2.3C23 1.053 21.947 0 20.7 0z"/>
        <path fill="#FFF" d="M15.594 4.922c.186.143.3.333.344.57a.83.83 0 0 1-.15.654l-4.448 6.489a.885.885 0 0 1-.548.344.735.735 0 0 1-.612-.15c-.115-.087-.416-.391-.903-.914A75.97 75.97 0 0 1 7.902 10.4l-.666-.73A.89.89 0 0 1 7 9.047c0-.244.086-.451.258-.623a.787.787 0 0 1 1.181.043l2.127 2.299 3.868-5.65a.885.885 0 0 1 .547-.345.735.735 0 0 1 .613.15z"/>
    </g>
</svg>
