<?xml version="1.0" encoding="UTF-8" standalone="no"?>
<svg width="41px" height="48px" viewBox="0 0 41 48" version="1.1" xmlns="http://www.w3.org/2000/svg" xmlns:xlink="http://www.w3.org/1999/xlink">
    <!-- Generator: sketchtool 41.1 (35376) - http://www.bohemiancoding.com/sketch -->
    <title>C6446570-558A-4F26-9595-0BE5D5AA6954</title>
    <desc>Created with sketchtool.</desc>
    <defs></defs>
    <g id="Symbols" stroke="none" stroke-width="1" fill="none" fill-rule="evenodd" opacity="0.5">
        <g id="editor" transform="translate(-449.000000, -40.000000)" fill="#D8D8D8">
            <g id="top" transform="translate(1.000000, 38.000000)">
                <path d="M483.15625,16.625 L485.3125,14.375 L485.59375,14.75 C485.843751,14.9375009 486.093749,15.03125 486.34375,15.03125 C486.531251,15.03125 486.781248,14.9375009 487.09375,14.75 C487.468752,14.2499975 487.468752,13.7500025 487.09375,13.25 L485.03125,11.28125 C484.593748,10.8437478 484.125002,10.8437478 483.625,11.28125 C483.124998,11.7187522 483.124998,12.1874975 483.625,12.6875 L483.90625,12.96875 L481.75,15.21875 C478.812485,12.4687362 475.34377,10.8125028 471.34375,10.25 L471.34375,3.96875 L474.34375,3.96875 C475.031253,3.96875 475.375,3.65625312 475.375,3.03125 C475.375,2.34374656 475.031253,2 474.34375,2 L462.34375,2 C461.656247,2 461.3125,2.34374656 461.3125,3.03125 C461.3125,3.65625312 461.656247,3.96875 462.34375,3.96875 L465.34375,3.96875 L465.34375,10.25 C460.531226,11.0000038 456.500016,13.2343564 453.25,16.953125 C449.999984,20.6718936 448.375,25.031225 448.375,30.03125 C448.375,35.5312775 450.328105,40.2343555 454.234375,44.140625 C458.140645,48.0468945 462.843723,50 468.34375,50 C473.843777,50 478.546855,48.0468945 482.453125,44.140625 C486.359395,40.2343555 488.3125,35.5312775 488.3125,30.03125 C488.3125,24.9062244 486.593767,20.4375191 483.15625,16.625 L483.15625,16.625 Z M467.3125,3.96875 L469.375,3.96875 L469.375,10.0625 C469.249999,10.0625 469.078126,10.0468752 468.859375,10.015625 C468.640624,9.98437484 468.468751,9.96875 468.34375,9.96875 C468.218749,9.96875 468.046876,9.98437484 467.828125,10.015625 C467.609374,10.0468752 467.437501,10.0625 467.3125,10.0625 L467.3125,3.96875 Z M468.34375,48.03125 C463.406225,48.03125 459.171893,46.2656427 455.640625,42.734375 C452.109357,39.2031073 450.34375,34.9687747 450.34375,30.03125 C450.34375,25.0937253 452.109357,20.8593927 455.640625,17.328125 C459.171893,13.7968573 463.406225,12.03125 468.34375,12.03125 C473.281275,12.03125 477.515607,13.7968573 481.046875,17.328125 C484.578143,20.8593927 486.34375,25.0937253 486.34375,30.03125 C486.34375,34.9687747 484.578143,39.2031073 481.046875,42.734375 C477.515607,46.2656427 473.281275,48.03125 468.34375,48.03125 L468.34375,48.03125 Z M460.09375,20.28125 C459.593748,19.9062481 459.093752,19.9062481 458.59375,20.28125 C458.156248,20.7187522 458.156248,21.1874975 458.59375,21.6875 L467.59375,30.6875 C467.843751,30.8750009 468.093749,30.96875 468.34375,30.96875 C468.531251,30.96875 468.781248,30.8750009 469.09375,30.6875 C469.531252,30.1874975 469.531252,29.7187522 469.09375,29.28125 L460.09375,20.28125 Z" id="icon-timer"></path>
            </g>
        </g>
    </g>
</svg>