<svg xmlns="http://www.w3.org/2000/svg" width="173" height="162" viewBox="0 0 173 162">
    <g fill="none" fill-rule="nonzero">
        <ellipse cx="88.317" cy="81.274" fill="#F8F8FF" rx="80.715" ry="80.669"/>
        <path fill="#FFF" d="M157.554 119.3H16.113a3.037 3.037 0 0 1-3.029-3.027V36.21a3.037 3.037 0 0 1 3.029-3.027h141.44a3.037 3.037 0 0 1 3.03 3.027v80.063a3.037 3.037 0 0 1-3.03 3.027z"/>
        <path fill="#A5A5A5" d="M157.554 120.057H16.113a3.748 3.748 0 0 1-3.786-3.784V36.21a3.748 3.748 0 0 1 3.786-3.784h141.44a3.748 3.748 0 0 1 3.786 3.784v80.063c0 1.968-1.665 3.784-3.785 3.784zM16.113 33.94c-1.212 0-2.272 1.06-2.272 2.27v80.063c0 1.211 1.06 2.27 2.272 2.27h141.44c1.212 0 2.272-1.059 2.272-2.27V36.21c0-1.21-1.06-2.27-2.271-2.27H16.113z"/>
        <path fill="#FFF" d="M152.86 114.457H20.806a3.037 3.037 0 0 1-3.028-3.027V41.053a3.037 3.037 0 0 1 3.028-3.027H152.86a3.037 3.037 0 0 1 3.029 3.027v70.529c0 1.513-1.363 2.875-3.029 2.875z"/>
        <path fill="#A5A5A5" d="M152.86 115.214H20.806a3.748 3.748 0 0 1-3.786-3.784V41.053a3.748 3.748 0 0 1 3.786-3.783H152.86a3.748 3.748 0 0 1 3.786 3.783v70.529c0 1.967-1.666 3.632-3.786 3.632zM20.806 38.784c-1.211 0-2.271 1.058-2.271 2.27v70.528c0 1.21 1.06 2.27 2.271 2.27H152.86c1.212 0 2.272-1.06 2.272-2.27V41.053c0-1.21-1.06-2.27-2.272-2.27H20.807z"/>
        <path fill="#FFF" d="M167.245 133.225H5.361c-1.969 0-3.635-1.665-3.635-3.633 0-1.967 1.666-3.632 3.635-3.632h161.884c1.97 0 3.635 1.665 3.635 3.632-.152 1.968-1.666 3.633-3.635 3.633z"/>
        <path fill="#A5A5A5" d="M167.245 133.981H5.361a4.394 4.394 0 0 1-4.392-4.389 4.394 4.394 0 0 1 4.392-4.389h161.884a4.394 4.394 0 0 1 4.392 4.39c0 2.42-2.12 4.388-4.392 4.388zM5.361 126.717c-1.515 0-2.877 1.21-2.877 2.875s1.211 2.876 2.877 2.876h161.884c1.515 0 2.878-1.211 2.878-2.876 0-1.665-1.212-2.875-2.878-2.875H5.361z"/>
        <path fill="#FFF" d="M133.172 53.767H68.358a2.714 2.714 0 0 1-2.726-2.725 2.714 2.714 0 0 1 2.726-2.724h64.814a2.714 2.714 0 0 1 2.726 2.724 2.714 2.714 0 0 1-2.726 2.725z"/>
        <path d="M133.172 54.523H68.358c-1.969 0-3.483-1.513-3.483-3.48 0-1.968 1.514-3.482 3.483-3.482h64.814c1.97 0 3.483 1.514 3.483 3.481 0 1.968-1.514 3.481-3.483 3.481zm-64.814-5.297c-1.06 0-1.969.908-1.969 1.968s.909 1.967 1.969 1.967h64.814c1.06 0 1.97-.908 1.97-1.967 0-1.06-.91-1.968-1.97-1.968H68.358z"/>
        <ellipse cx="31.711" cy="51.194" fill="#A5A5A5" rx="3.332" ry="3.33"/>
        <ellipse cx="42.16" cy="51.194" fill="#A5A5A5" rx="3.332" ry="3.33"/>
        <ellipse cx="52.76" cy="51.194" fill="#A5A5A5" rx="3.332" ry="3.33"/>
        <path fill="#D3C9F5" d="M29.055 66.21h33.658v26.458H29.055z"/>
        <path fill="#A5A5A5" d="M62.713 93.155H29.055c-.356 0-.593-.243-.593-.61V66.212c0-.366.237-.61.593-.61h33.658c.355 0 .592.244.592.61v26.457c0 .244-.237.487-.592.487zm-33.066-1.219H62.12V66.821H29.647v25.115z"/>
        <path fill="#FFF" d="M35.217 75.014c-1.777 0-3.08-1.463-3.08-3.17 0-1.829 1.421-3.17 3.08-3.17 1.778 0 3.082 1.463 3.082 3.17 0 1.707-1.422 3.17-3.082 3.17z"/>
        <path fill="#A5A5A5" d="M35.217 75.623c-2.014 0-3.673-1.707-3.673-3.78 0-2.072 1.659-3.779 3.673-3.779 2.015 0 3.674 1.707 3.674 3.78 0 1.95-1.659 3.78-3.674 3.78zm0-6.461c-1.422 0-2.488 1.219-2.488 2.56 0 1.463 1.185 2.56 2.488 2.56 1.423 0 2.49-1.219 2.49-2.56 0-1.463-1.067-2.56-2.49-2.56z"/>
        <g>
            <path fill="#FFF" d="M30.347 88.461c.592 0 6.755-6.949 6.755-6.949l3.437 3.536L50.73 73.83l8.178 9.144v9.754l-29.274.122.712-4.39z"/>
            <path fill="#A5A5A5" d="M29.872 93.094c-.118 0-.355 0-.474-.121-.118-.122-.118-.244-.118-.366l.474-4.267c0-.244.237-.488.474-.488.593-.366 3.792-3.658 6.4-6.828.118-.122.237-.243.474-.243.118 0 .355.121.474.121l2.963 3.048 10.074-10.363c.118-.122.237 0 .474 0 .118 0 .355-.122.474 0l8.414 9.022c.119.122.119.122.119.366v9.754c0 .365-.237.487-.593.487l-29.629-.122zm1.067-4.267l-.355 3.292 28.325-.122v-8.9l-7.822-8.412-10.074 10.728c-.119.122-.237.244-.474.244-.119 0-.356-.122-.474-.122l-2.963-3.048c-3.911 4.39-5.452 5.853-6.163 6.34z"/>
        </g>
        <g>
            <path fill="#D3C9F5" d="M68.055 66.21h33.658v26.458H68.055z"/>
            <path fill="#A5A5A5" d="M101.713 93.155H68.055c-.356 0-.593-.243-.593-.61V66.212c0-.366.237-.61.593-.61h33.658c.355 0 .592.244.592.61v26.457c0 .244-.237.487-.592.487zm-33.066-1.219h32.473V66.821H68.647v25.115z"/>
            <path fill="#FFF" d="M74.217 75.014c-1.777 0-3.08-1.463-3.08-3.17 0-1.829 1.421-3.17 3.08-3.17 1.778 0 3.082 1.463 3.082 3.17 0 1.707-1.422 3.17-3.082 3.17z"/>
            <path fill="#A5A5A5" d="M74.217 75.623c-2.014 0-3.673-1.707-3.673-3.78 0-2.072 1.659-3.779 3.673-3.779 2.015 0 3.674 1.707 3.674 3.78 0 1.95-1.659 3.78-3.674 3.78zm0-6.461c-1.422 0-2.488 1.219-2.488 2.56 0 1.463 1.185 2.56 2.488 2.56 1.423 0 2.49-1.219 2.49-2.56 0-1.463-1.067-2.56-2.49-2.56z"/>
            <g>
                <path fill="#FFF" d="M69.347 88.461c.592 0 6.755-6.949 6.755-6.949l3.437 3.536L89.73 73.83l8.178 9.144v9.754l-29.274.122.712-4.39z"/>
                <path fill="#A5A5A5" d="M68.872 93.094c-.118 0-.355 0-.474-.121-.118-.122-.118-.244-.118-.366l.474-4.267c0-.244.237-.488.474-.488.593-.366 3.792-3.658 6.4-6.828.118-.122.237-.243.474-.243.118 0 .355.121.474.121l2.963 3.048 10.074-10.363c.118-.122.237 0 .474 0 .118 0 .355-.122.474 0l8.414 9.022c.119.122.119.122.119.366v9.754c0 .365-.237.487-.593.487l-29.629-.122zm1.067-4.267l-.355 3.292 28.325-.122v-8.9l-7.822-8.412-10.074 10.728c-.119.122-.237.244-.474.244-.119 0-.356-.122-.474-.122l-2.963-3.048c-3.911 4.39-5.452 5.853-6.163 6.34z"/>
            </g>
        </g>
        <g>
            <path fill="#D3C9F5" d="M108.055 66.21h33.658v26.458h-33.658z"/>
            <path fill="#A5A5A5" d="M141.713 93.155h-33.658c-.356 0-.593-.243-.593-.61V66.212c0-.366.237-.61.593-.61h33.658c.355 0 .592.244.592.61v26.457c0 .244-.237.487-.592.487zm-33.066-1.219h32.473V66.821h-32.473v25.115z"/>
            <path fill="#FFF" d="M114.217 75.014c-1.777 0-3.08-1.463-3.08-3.17 0-1.829 1.421-3.17 3.08-3.17 1.778 0 3.082 1.463 3.082 3.17 0 1.707-1.422 3.17-3.082 3.17z"/>
            <path fill="#A5A5A5" d="M114.217 75.623c-2.014 0-3.673-1.707-3.673-3.78 0-2.072 1.659-3.779 3.673-3.779 2.015 0 3.674 1.707 3.674 3.78 0 1.95-1.659 3.78-3.674 3.78zm0-6.461c-1.422 0-2.488 1.219-2.488 2.56 0 1.463 1.185 2.56 2.488 2.56 1.423 0 2.49-1.219 2.49-2.56 0-1.463-1.067-2.56-2.49-2.56z"/>
            <g>
                <path fill="#FFF" d="M109.347 88.461c.592 0 6.755-6.949 6.755-6.949l3.437 3.536L129.73 73.83l8.178 9.144v9.754l-29.274.122.712-4.39z"/>
                <path fill="#A5A5A5" d="M108.872 93.094c-.118 0-.355 0-.474-.121-.118-.122-.118-.244-.118-.366l.474-4.267c0-.244.237-.488.474-.488.593-.366 3.792-3.658 6.4-6.828.118-.122.237-.243.474-.243.118 0 .355.121.474.121l2.963 3.048 10.074-10.363c.118-.122.237 0 .474 0 .118 0 .355-.122.474 0l8.414 9.022c.119.122.119.122.119.366v9.754c0 .365-.237.487-.593.487l-29.629-.122zm1.067-4.267l-.355 3.292 28.325-.122v-8.9l-7.822-8.412-10.074 10.728c-.119.122-.237.244-.474.244-.119 0-.356-.122-.474-.122l-2.963-3.048c-3.911 4.39-5.452 5.853-6.163 6.34z"/>
            </g>
        </g>
        <path fill="#A5A5A5" d="M149.96 82.273c-.91 0-1.515-.605-1.515-1.513V44.739c0-.908.605-1.514 1.514-1.514s1.514.606 1.514 1.514v36.02c0 .757-.757 1.514-1.514 1.514z"/>
        <g fill="#896CA8">
            <path d="M154.177 28.007a.833.833 0 0 1-.758-.454l-1.514-4.086c-.151-.454 0-.757.454-.909.455-.15.758 0 .909.455l1.514 4.086c.152.454 0 .757-.454.908h-.151zM167.806 34.212c-.303 0-.606-.151-.757-.605-.152-.454.151-.757.454-.908l3.937-1.21c.455-.152.757.15.909.453.151.454-.152.757-.454.908l-3.938 1.211c0 .151-.151.151-.151.151zM162.657 29.066c-.151 0-.303 0-.303-.15-.303-.152-.454-.606-.303-1.06l2.12-4.238c.152-.303.606-.454 1.06-.303.303.152.455.606.303 1.06l-2.12 4.237a.833.833 0 0 1-.757.454z"/>
        </g>
    </g>
</svg>
