<svg xmlns="http://www.w3.org/2000/svg" width="10" height="14" viewBox="0 0 10 14">
    <path fill="#484B4C" fill-rule="evenodd" d="M0 13.696l.152-.758.687-.18c.453-.112.798-.228 1.036-.347.173-.22.295-.521.366-.902l.241-1.241.5-2.393.107-.571a19.848 19.848 0 0 1 .407-1.768c.032-.12.06-.21.08-.273a.913.913 0 0 0 .031-.102l.26-1.402.142-.563.196-1.205.072-.446v-.34c-.244-.13-.673-.214-1.286-.25a3.272 3.272 0 0 1-.34-.035l.17-.92 2.83.125c.233.012.45.018.653.018.392 0 1.03-.027 1.91-.08A56.505 56.505 0 0 0 9.143 0c-.012.113-.03.226-.054.34-.041.172-.08.324-.116.455A8.881 8.881 0 0 1 8 1.07a7.052 7.052 0 0 0-.902.277 5.335 5.335 0 0 0-.214.786 7.687 7.687 0 0 0-.116.732 202.757 202.757 0 0 0-.59 2.732l-.544 2.777-.34 1.41-.383 2.099-.107.402a.685.685 0 0 0 .008.24c.381.09.736.153 1.063.188.214.03.41.06.59.09a3.075 3.075 0 0 1-.063.517c-.042.185-.069.307-.08.367-.108 0-.176.002-.206.008a4.587 4.587 0 0 1-.375.018c-.053 0-.137-.009-.25-.027-.113-.023-.545-.074-1.295-.151l-1.767-.018c-.244-.006-.762.027-1.554.098-.44.042-.732.069-.875.08z"/>
</svg>
