<svg xmlns="http://www.w3.org/2000/svg" width="15" height="15" viewBox="0 0 15 15">
    <path fill="#484B4C" fill-rule="evenodd" d="M12.857 10.714a.827.827 0 0 0-.25-.607L10.75 8.25a.827.827 0 0 0-.607-.25.85.85 0 0 0-.643.286l.17.165c.095.092.159.156.192.192.032.036.077.092.134.17a.718.718 0 0 1 .147.473c0 .238-.083.44-.25.607a.827.827 0 0 1-.607.25.718.718 0 0 1-.473-.147 2.126 2.126 0 0 1-.17-.134 5.522 5.522 0 0 1-.192-.192 24.534 24.534 0 0 0-.165-.17.866.866 0 0 0-.295.652c0 .238.083.44.25.607l1.84 1.848c.16.16.362.241.607.241a.86.86 0 0 0 .607-.232l1.312-1.303a.816.816 0 0 0 .25-.599zM6.58 4.42a.827.827 0 0 0-.25-.607L4.491 1.964a.827.827 0 0 0-.607-.25.862.862 0 0 0-.607.241L1.964 3.26a.816.816 0 0 0-.25.598c0 .238.084.44.25.607l1.857 1.857c.161.161.364.242.608.242.25 0 .464-.093.642-.277a24.58 24.58 0 0 0-.17-.165 5.522 5.522 0 0 1-.191-.192 2.126 2.126 0 0 1-.134-.17.718.718 0 0 1-.147-.473c0-.238.083-.44.25-.607a.827.827 0 0 1 .607-.25.718.718 0 0 1 .473.147c.077.056.134.101.17.134.035.033.1.097.192.192l.165.17a.866.866 0 0 0 .294-.652zm7.991 6.294c0 .715-.253 1.319-.758 1.813L12.5 13.83c-.494.494-1.098.741-1.813.741-.72 0-1.327-.253-1.82-.758l-1.84-1.849c-.494-.494-.741-1.098-.741-1.812 0-.732.262-1.354.785-1.866L6.286 7.5a2.501 2.501 0 0 1-1.857.786 2.48 2.48 0 0 1-1.822-.75L.75 5.679A2.48 2.48 0 0 1 0 3.857c0-.714.253-1.318.759-1.812L2.07.74C2.565.247 3.17 0 3.884 0c.72 0 1.327.253 1.821.759l1.84 1.848c.494.494.74 1.098.74 1.813 0 .732-.261 1.354-.785 1.866l.786.785a2.501 2.501 0 0 1 1.857-.785c.714 0 1.321.25 1.821.75l1.857 1.857c.5.5.75 1.107.75 1.821z"/>
</svg>
