<svg xmlns="http://www.w3.org/2000/svg" width="17" height="14" viewBox="0 0 17 14">
    <path fill="#484B4C" fill-rule="evenodd" d="M7.227 1.465c-.765.44-1.384.818-1.856 1.135a8.546 8.546 0 0 0-1.44 1.257 5.747 5.747 0 0 0-1.05 1.539c-.244.537-.415 1.228-.513 2.075H3.54c1.01 0 1.803.248 2.38.744.578.497.867 1.225.867 2.185 0 .684-.256 1.323-.769 1.917-.513.594-1.217.891-2.112.891-1.4 0-2.4-.46-3.003-1.38C.301 10.91 0 9.702 0 8.204 0 7.145.228 6.181.684 5.31c.455-.87 1.009-1.648 1.66-2.331.667-.7 1.375-1.294 2.124-1.783A82.01 82.01 0 0 1 6.348 0l.879 1.465zm9.033 0c-.765.44-1.384.818-1.856 1.135a8.546 8.546 0 0 0-1.44 1.257c-.472.505-.826 1.022-1.062 1.55-.236.53-.403 1.217-.5 2.064h1.171c1.01 0 1.803.248 2.38.744.578.497.867 1.225.867 2.185 0 .684-.256 1.323-.769 1.917-.512.594-1.216.891-2.112.891-1.4 0-2.4-.46-3.002-1.38-.603-.919-.904-2.127-.904-3.625 0-1.058.228-2.022.684-2.893.456-.87 1.009-1.648 1.66-2.331.667-.7 1.375-1.294 2.124-1.783A82.01 82.01 0 0 1 15.381 0l.879 1.465z"/>
</svg>
