<svg xmlns="http://www.w3.org/2000/svg" width="16" height="16" viewBox="0 0 16 16">
    <g fill="#A5A5A5" fill-rule="nonzero">
        <path d="M14.154 16H1.846A1.852 1.852 0 0 1 0 14.154V1.846C0 .831.83 0 1.846 0h11.077c.154 0 .308.062.43.185l2.462 2.461a.607.607 0 0 1 .185.43v11.078C16 15.169 15.17 16 14.154 16zM1.846 1.23a.617.617 0 0 0-.615.616v12.308c0 .338.277.615.615.615h12.308a.617.617 0 0 0 .615-.615V3.324L12.677 1.23H1.847z"/>
        <path d="M12.308 16H3.692a.617.617 0 0 1-.615-.615v-4.862c0-1.046.861-1.908 1.908-1.908h6.061c1.046 0 1.908.862 1.908 1.908v4.862c-.03.338-.308.615-.646.615zm-8-1.23h7.384v-4.247a.683.683 0 0 0-.677-.677h-6.03a.683.683 0 0 0-.677.677v4.246zm6.061-8.616H5.631C4.738 6.154 4 5.415 4 4.524V.614C4 .277 4.277 0 4.615 0h6.77c.338 0 .615.277.615.615v3.908c0 .892-.738 1.63-1.63 1.63zM5.231 1.23v3.292c0 .215.184.4.4.4h4.738c.216 0 .4-.185.4-.4V1.231H5.231z"/>
        <path d="M10.615 3.846A.617.617 0 0 1 10 3.231v-.616c0-.338.277-.615.615-.615.339 0 .616.277.616.615v.616a.617.617 0 0 1-.616.615z"/>
    </g>
</svg>
