<svg xmlns="http://www.w3.org/2000/svg" xmlns:xlink="http://www.w3.org/1999/xlink" width="40" height="40" viewBox="0 0 40 40">
    <defs>
        <linearGradient id="b" x1="50%" x2="50%" y1="3.371%" y2="96.16%">
            <stop offset="0%" stop-color="#9DCBE7"/>
            <stop offset="87.805%" stop-color="#48B1D9"/>
            <stop offset="100%" stop-color="#3DADD7"/>
        </linearGradient>
        <path id="a" d="M20 40c11.046 0 20-8.954 20-20S31.046 0 20 0 0 8.954 0 20s8.954 20 20 20z"/>
    </defs>
    <g fill="none" fill-rule="evenodd">
        <mask id="c" fill="#fff">
            <use xlink:href="#a"/>
        </mask>
        <use fill="url(#b)" xlink:href="#a"/>
        <g mask="url(#c)">
            <path fill="#F2D0AB" d="M24.453 12.018c-1.056-1.763-5.187-5.32-9.09-.861-2.45 2.798-1.051 7.075-.02 9.907.996 2.733 3.576 2.925 4.223 2.935l.002.001h.062c.647-.01 3.228-.203 4.224-2.936 1.031-2.832 1.655-7.283.6-9.046"/>
            <path fill="#92DFEF" d="M28.979 29.533c-.61-2.867-2.676-4.89-5.377-5.4l.013-.054-.983-.065-5.19-.014-.82.108-.003-.02c-.107.018-.21.041-.314.063l-.057.007.001.004c-2.627.555-4.63 2.556-5.228 5.371 0 0-2.69 11.467.661 11.467H28.317c3.352 0 .662-11.467.662-11.467"/>
            <path fill="#FFF1EC" d="M25 17.482c.108-1.058.539-4.45-.538-5.91C23.475 10.236 22.522 9.066 20 9l.022 2.974v27.988L28.32 40c1.263 0 1.667-1.413 1.68-3.17.03-2.903-.554-6.905-.554-6.905-.176-3.658-5.922-6.696-6.413-5.87h-1.197c.953-.42 2.07-1.187 2.626-2.505.298-2.127.478-3.483.538-4.068z" opacity=".458"/>
        </g>
    </g>
</svg>
