<svg xmlns="http://www.w3.org/2000/svg" width="35" height="35" viewBox="0 0 35 35">
    <g fill="none" fill-rule="evenodd">
        <rect width="34" height="34" x=".5" y=".5" stroke="#E7E7E7" rx="17"/>
        <g fill="#2AD396" stroke="#2AD396" stroke-width=".5">
            <path d="M12.786 24.703C11.25 24.703 10 23.427 10 21.86v-1.074c0-.48.38-.868.85-.868s.851.388.851.868v1.074c0 .61.487 1.107 1.085 1.107h9.425c.598 0 1.085-.497 1.085-1.107v-1.284c0-.48.381-.868.85-.868.47 0 .851.388.851.868v1.284c0 1.567-1.25 2.843-2.786 2.843h-9.425z"/>
            <path d="M16.874 20.118l-3.871-3.95a.88.88 0 0 1 0-1.228.839.839 0 0 1 1.203 0l3.27 3.337 3.27-3.337a.839.839 0 0 1 1.203 0 .88.88 0 0 1 0 1.227l-3.872 3.95a.842.842 0 0 1-1.203 0z"/>
            <path d="M17.476 20.372c-.47 0-.85-.284-.85-.634V9.634c0-.35.38-.634.85-.634s.85.284.85.634v10.104c0 .35-.38.634-.85.634"/>
        </g>
    </g>
</svg>
