<svg xmlns="http://www.w3.org/2000/svg" width="132" height="31" viewBox="0 0 132 31">
    <defs>
        <linearGradient id="a" x1="0%" y1="50%" y2="0%">
            <stop offset="0%" stop-color="#896CA8"/>
            <stop offset="100%" stop-color="#6EE4FF"/>
        </linearGradient>
        <linearGradient id="b" x1="100%" x2="2.849%" y1="100%" y2="100%">
            <stop offset="0%" stop-color="#896CA8"/>
            <stop offset="100%" stop-color="#6EE4FF"/>
        </linearGradient>
        <path id="c" d="M108 0h6v20h-6z"/>
        <linearGradient id="d" x1="50%" x2="50%" y1="0%" y2="100%">
            <stop offset="0%" stop-color="#5DE0FF"/>
            <stop offset="100%" stop-color="#00A0D5"/>
        </linearGradient>
        <linearGradient id="e" x1="50%" x2="50%" y1="90.042%" y2="0%">
            <stop offset="0%" stop-color="#896CA8"/>
            <stop offset="100%" stop-color="#6EE4FF"/>
        </linearGradient>
    </defs>
    <g fill="none" fill-rule="evenodd">
        <path fill="url(#a)" d="M48.515 25.005c-7.923.293-14.555.721-19.452 1.226-14.51 1.497-27.812 5.032-17.278 3.304 3.272-.536 14.052-1.754 22.95-2.237 5.36-.29 9.481-.537 13.78-.717.043-.002.271-.041.318-.254.015-.07.153-.999.153-.999.071-.288-.142-.328-.323-.328-.055 0-.107.004-.148.005"/>
        <path fill="url(#b)" d="M56.73 24.228c-.197.006-.596.056-.61.494-.011.324-.07.763-.118 1.42-.024.311.226.466.323.463 8.62-.336 20.51-.014 34.417.923 8.677.585 21.91 2.077 21.233 1.205-1.253-1.615-1.327-1.65-4.392-2.264C99.058 24.76 84.278 24 70.033 24c-4.564 0-9.072.078-13.304.228"/>
        <path fill="#FFF" d="M120.211 25.9c-.326.172-.662.37-1.028.438-.151.028-.758.235-.268-.566.612-1 1.946-1.63 3.193-2.036-.042.092-.077.186-.123.276-.404.779-1.006 1.485-1.774 1.889m9.68-11.292c-.542 2.306-1.37 3.248-3.4 4.162.037-.898.079-1.797.194-2.69C127.01 13.55 128.436 6 128.436 6s-.559.136-1.467.083c-1.04-.06-2.034.018-2.034.018s-.461 2.895-.608 3.59l-.039.178c-.262 1.21-.58 2.41-1.103 3.503-.336.7-.75 1.44-1.258 2.025-.622.715-.986.803-1.484.726-.614-.096-.907-.366-1.046-.697-.281-.668.163-1.986.3-2.698.314-1.647.835-4.232.974-5.911l.062-.749s-1.155.052-1.66.05c-.39-.001-.841-.02-1.187-.025-.463-.006-.773.067-.83.756-.22 2.67-1.4 6.224-1.282 8.941.124 2.83 1.875 3.492 4.229 3.77 1.116.133 2.071-.035 2.897-.419-.007.216-.015.433-.026.65-.957.223-1.91.465-2.846.863-2.028.862-3.963 2.086-4.775 4.328-.719 1.982.136 3.863 2.042 4.636 4.115 1.667 7.818-2.436 8.725-6.217.05-.21.087-.422.126-.634a11.05 11.05 0 0 0 1.913-.629c2.928-1.31 3.941-4.475 3.941-4.475s-1.56-5.39-2.109-3.054M11.044 9.717c-.648 0-1.862-1.276-2.041-1.847-.183-.583 2.298-1.577 2.268-2.203-.1-2.096-2.187-1.227-3.235-.515-1.405.953-2.62 2.422-3.356 4.07-1.07 2.397-1.056 5.672.925 7.441 1.235 1.103 2.49 1.062 3.994 1.062.711 0 1.243-.09 1.912-.351.336-.131 1.471-.863 1.82-.681.404.21.887 1.462 1.048 1.994.254.842.804 1.05.217 1.673-.846.897-3.398 1.518-4.516 1.604-1.083.084-2.28.027-3.334-.222-2.962-.7-5.772-3.144-6.49-6.565-.559-2.658-.184-5.94.947-8.305C2.828 3.474 6.6.017 10.178 0c3.596-.017 5.255 3.512 4.725 6.173-.53 2.66-2.693 3.544-3.86 3.544z"/>
        <path fill="#FFF" d="M23.34 14.848c-.402-.445-.828-.916-1.1-1.458-.287-.575-.168-1.086.15-1.608.144-.234.202-.317.01-.528-.196-.215-.482-.412-.765-.476-.555-.126-1.132.175-1.526.55-.825.786-1.25 2.106-1.103 3.24.143 1.09.76 2.467 1.979 2.586.698.068 1.308-.24 1.799-.729.227-.225.409-.488.567-.767.216-.38.286-.48-.01-.81m5.35-.374c-.31.383-.569.462-.944.74-.283.21-.327.578-.446.893-.32.846-.773 1.657-1.302 2.383-1.093 1.498-2.693 2.485-4.543 2.503-.467.005-.945.023-1.41-.03-.908-.102-1.77-.512-2.48-1.091-1.34-1.09-2.517-2.95-2.551-4.741-.02-1.06-.064-2.172.234-3.195.52-1.788 1.88-3.334 3.479-4.202 1.237-.673 2.541-.792 3.913-.712.845.048 1.614.294 2.296.818.783.602 1.122 1.467 1.623 2.288.228.372.53 1.036.969 1.161.358.102.423.22 1.068.096.342-.065.333-.18.386-.115.046.056.016 2.824-.292 3.204M50.735 18.505c-.441 1.628-.755 2.454-2.335 2.493-1.255.032-2.24-.325-3.033-1.41-.651-.891-.706-1.879-.647-2.953.035-.66.162-1.323.239-1.979.083-.71.366-1.786.081-2.469-.76-1.825-2.622.88-2.984 1.671-.767 1.683-1.105 3.534-1.593 5.316-.13.473-.25 1.4-.736 1.614-.215.095-2.72.233-2.968-.011-.207-.204-.023-1.936 0-2.265.11-1.581.538-3.148.662-4.737.046-.588.2-1.463-.395-1.804-.496-.285-.998.106-1.374.42-1.177.983-1.84 2.483-2.29 3.95a16.553 16.553 0 0 0-.513 2.29c-.08.517.029 1.583-.26 2.014-.319.473-3.496.337-3.57-.123-.077-.484.1-.987.15-1.462.101-.938.129-1.886.207-2.827.166-2.014.551-3.985.632-6.008.026-.639-.122-1.877.284-2.405.25-.324.571-.265.93-.272.52-.01 1.042 0 1.561 0 .161 0 .893-.116 1.012 0 .232.226.017 1.778.017 2.158 1.3-.816 1.933-2.233 3.58-2.523 1.495-.264 2.741.38 3.518 1.716.256.44.182.696.647.563.28-.08.52-.451.726-.659.512-.515 1.027-1.074 1.665-1.423.777-.425 2.07-.494 2.921-.204 1.274.433 1.942 1.638 2.062 2.974.136 1.504-.23 2.791-.289 4.264-.043 1.109-.317 3.198 1.353 2.554.363-.14.7-.484.92-.147.21.32-.015 1.075-.18 1.684M65.588 17.855c-.34.595-.931.925-1.556 1.122-.964.302-2.081.341-3.086.271-1.136-.08-2.903-.311-3.844-.99-.553-.399-.49-1.056-.426-1.715.046-.463.127-1.453.631-1.549.28-.053.836.122 1.16.105.65-.033 1.183-.257 1.684-.689.989-.85 1.993-2.72 1.094-3.98-.918-1.286-2.637-.186-3.354.736-.963 1.238-1.442 2.857-1.826 4.366-.396 1.555-1.207 9.298-1.428 10.694-.014.088-.142.675-.233.768-.091.093-1.59-.907-1.59-.907s-1.47.887-1.772.65c-.313-.244 1.21-11.52 1.382-12.965.261-2.196.416-4.403.675-6.594.13-1.097 2.734-.976 3.16-.877.535.124.45.338.32.962.75.086 1.514-.605 2.159-.907.55-.258 1.049-.35 1.646-.356 1.404-.015 2.545.41 3.526 1.503.981 1.094 1.296 2.36 1.258 3.806-.018.676-.158 1.277-.382 1.914-.235.669-.72 1.365-.851 2.056.764.247 1.164-.41 1.82-.3.452.077.21 2.217-.167 2.876M74.252 13.837c-.46-.518-1.1-1.158-1.229-1.878-.11-.611.55-1.222.341-1.674-.355-.771-1.51-.559-2.03-.19-.55.39-.919 1.04-1.137 1.68-.479 1.402-.209 3.761 1.393 4.298.999.335 3.59-1.185 2.662-2.236m5.425-.38c-.418.524-1.055.595-1.377 1.192-.43.797-.669 1.661-1.173 2.44-.965 1.492-2.414 2.689-4.187 2.863-1.33.131-2.699.026-3.858-.72-1.456-.935-2.632-2.693-2.948-4.442-.535-2.962.543-6.005 2.991-7.696 1.25-.863 2.567-1.126 4.036-1.09 1.96.046 3.071.949 4.009 2.67.59 1.084.937 1.395 2.09 1.283.53-.051.551-.093.672.286.153.478 0 1.274 0 1.779 0 .474.06 1.04-.255 1.435M90.98 17.403c-.082 1.521-.625 2.182-2.05 2.466-.78.155-1.58.127-2.37.127-1.782 0-3.87.121-5.447-.96-.582-.4-.568-.748-.463-1.433.063-.416.108-1.577.333-1.667.303-.12.903.22 1.174.296.375.105.73.172 1.115.19.93.043 1.759-.139 2.419-.938.775-.938 1.03-3.129.074-4.074-.585.91-1.066 2.648-2.104 3.003-.788.27-2.94-.084-3.661-.558 2.303-1.707 2.257-3.356 3.138-5.218l.744-1.575c.11-.234.25-.76.44-.93.242-.218.703-.102 1.045-.096 1.014.019 2.028.005 3.042-.018 0 .532-.045 1.087.006 1.616.118 1.209.776 2.361 1.104 3.512.47 1.649.201 3.533-.415 5.086.31 0 .548.059.852-.014.375-.09.307-.16.848-.225.08.486.256 1.059.176 1.41M98.622 10.052c-.235-.654-2.354 1.053-1.952 1.626.115.164.749-.112.873-.157.59-.217 1.355-.691 1.08-1.469m-6.064.105c.904-1.994 2.718-3.651 4.868-4.069 2.031-.394 4.392.553 5.368 2.475.907 1.787.32 4.019-1.244 5.202-.776.587-1.774.915-2.704 1.15-.31.08-2.168.175-2.258.519-.284 1.08 2.6.77 3.087.66.837-.19 1.664-.49 2.46-.813.34-.137 1.113-.677 1.48-.667.39.01.223-.01.31.294.218.772-.085 2.225-.376 2.95-.347.864-1.015 1.438-1.865 1.759-1.273.48-2.72.377-4.059.367-2.039-.016-3.812-1.08-4.93-2.829-.642-1.003-.703-2.105-.695-3.266.009-1.3.011-2.526.558-3.732M107.86 18.691a1.976 1.976 0 0 1-.406.66 2.137 2.137 0 0 1-.641.468c-.25.12-.531.181-.845.181a2.038 2.038 0 0 1-1.786-1.202 2.187 2.187 0 0 1-.182-.926c0-.51.178-.95.535-1.319.356-.369.855-.553 1.497-.553.528 0 .987.18 1.38.542.392.362.588.834.588 1.415 0 .242-.046.487-.14.734M113.964 18.395c-.22 1.632-1.395 1.626-2.919 1.599-1.454-.027-2.355-.52-2.798-2.011-.427-1.436-.21-2.546-.025-3.983l1.433-11.183c.061-.477.154-.892.255-1.357.18-.82-.096-1.448.902-1.46.933-.01 1.887.192 2.817.073-.083 3.277-.693 6.563-1.16 9.839-.215 1.507-.474 3.014-.646 4.527-.045.396-.128.846-.062 1.236.14.818.798.566 1.408.486a1.03 1.03 0 0 1 .469-.063c.304-.058.4.075.286.4.098.36.09 1.53.04 1.897"/>
        <path fill="url(#d)" d="M.204 22.658l1.824 2.178 1.97-2.178z" transform="translate(51 6)"/>
        <path fill="url(#e)" d="M2.622 1.351c-.292 2.245-.521 5.002-.815 7.251C1.614 10.084-.1 21.64.252 21.892c.34.241 1.994-.668 1.994-.668s-.051.075.051-.02C2.537 19.822 4.715.626 4.693.628c-.562.048-1.925-.4-2.07.723z" transform="translate(51 6)"/>
    </g>
</svg>
